<svg width="326" height="131" viewBox="0 0 326 131" fill="none" xmlns="http://www.w3.org/2000/svg">
<g clip-path="url(#clip0_1102_1110)">
<g clip-path="url(#clip1_1102_1110)">
<rect width="326" height="131" rx="10" fill="url(#paint0_linear_1102_1110)"/>
<path opacity="0.25" d="M256.035 160C305.14 160 344.947 150.731 344.947 139.297C344.947 127.863 305.14 118.594 256.035 118.594C206.931 118.594 167.124 127.863 167.124 139.297C167.124 150.731 206.931 160 256.035 160Z" fill="#042030"/>
<path d="M325.667 39.3868L256.035 63.1985L186.333 39.3868L153 87.8582L256.035 123.117L359 87.8582L325.667 39.3868Z" fill="#4E2999"/>
<path opacity="0.45" d="M165.147 85.8798L250.598 118.594L221.219 89.4833C221.219 89.4833 172.986 77.8247 165.147 85.8798Z" fill="#240F4F"/>
<path opacity="0.45" d="M346.924 85.8798L261.473 118.594L290.851 89.4833C290.781 89.4833 339.014 77.8247 346.924 85.8798Z" fill="#240F4F"/>
<path d="M256.035 123.117L153 87.8582V92.451L256.035 127.709L359 92.451V87.8582L256.035 123.117Z" fill="#994EF8"/>
<path d="M201.163 144.314L213.098 113.012L251.516 126.155L201.163 144.314Z" fill="#3B1E77"/>
<path opacity="0.45" d="M204.482 135.27L251.516 126.155L213.098 113.012L204.482 135.27Z" fill="#3B1E77"/>
<path d="M256.035 124.53L201.163 144.314L205.259 148.624L256.035 130.536L306.741 148.624L310.907 144.314L256.035 124.53Z" fill="#994EF8"/>
<path d="M310.907 144.314L298.902 113.012L260.484 126.155L310.907 144.314Z" fill="#3B1E77"/>
<path opacity="0.45" d="M307.518 135.27L260.484 126.155L298.902 113.012L307.518 135.27Z" fill="#3B1E77"/>
<path d="M256.035 130.536C258.102 130.536 259.778 128.859 259.778 126.791C259.778 124.723 258.102 123.046 256.035 123.046C253.968 123.046 252.292 124.723 252.292 126.791C252.292 128.859 253.968 130.536 256.035 130.536Z" fill="white" fill-opacity="0.5"/>
<path d="M322.701 39.3868L256.035 72.5961L189.37 39.3868C186.333 43.4143 161.898 84.184 161.898 84.184C162.181 84.184 162.393 84.2546 162.675 84.2546C223.974 90.4019 240.993 109.692 246.643 114.355C252.292 119.089 256.106 118.594 256.106 118.594C256.106 118.594 259.919 119.089 265.569 114.355C271.219 109.692 288.238 90.4019 349.537 84.2546C349.819 84.2546 350.031 84.184 350.314 84.184C350.172 84.184 325.667 43.485 322.701 39.3868Z" fill="#F5B304"/>
<path d="M350.172 84.184C349.89 84.184 349.678 84.2546 349.396 84.2546C288.097 90.4019 271.077 109.692 265.428 114.355C259.778 119.089 255.965 118.594 255.965 118.594C255.965 118.594 252.151 119.089 246.502 114.355C240.852 109.692 223.832 90.4019 162.534 84.2546C162.251 84.2546 162.039 84.184 161.757 84.184C161.263 84.9612 161.757 85.5265 161.757 85.5265C223.691 91.5324 240.146 110.893 245.795 115.627C251.445 120.29 255.894 119.937 255.894 119.937C255.894 119.937 260.343 120.29 265.993 115.627C271.642 110.963 288.097 91.6031 350.031 85.5265C350.172 85.5265 350.667 84.9612 350.172 84.184Z" fill="#994EF8"/>
<path d="M320.159 35.5006C286.049 27.3043 255.965 55.3555 255.965 55.3555C255.965 55.3555 225.88 27.3043 191.771 35.5006C191.771 35.5006 182.096 50.3388 168.748 75.5637C168.748 75.5637 235.908 83.1241 255.965 111.317C276.021 83.1241 343.181 75.5637 343.181 75.5637C329.834 50.3388 320.159 35.5006 320.159 35.5006Z" fill="#F5EFFB"/>
<path d="M343.181 75.5637C343.181 75.5637 276.021 83.1241 255.965 111.317C235.979 83.1241 168.819 75.5637 168.819 75.5637C168.819 75.5637 168.819 77.8247 165.076 82.2762C165.076 82.2762 226.022 86.657 248.196 111.953C253.422 117.888 255.965 117.181 255.965 117.181C255.965 117.181 258.578 117.888 263.733 111.953C285.837 86.657 346.853 82.2762 346.853 82.2762C343.181 77.7541 343.181 75.5637 343.181 75.5637Z" fill="#DFCBF4"/>
<path d="M316.345 38.4682C316.345 38.4682 290.851 31.9677 255.965 59.0297C221.149 32.0384 195.584 38.4682 195.584 38.4682L178.353 71.9602C230.753 75.5637 255.965 102.06 255.965 102.06C255.965 102.06 281.176 75.5637 333.577 71.9602L316.345 38.4682ZM256.035 98.8808C256.035 98.8808 232.448 74.7158 182.449 69.9817L196.926 39.8814C196.926 39.8814 221.996 35.006 256.035 60.5842C290.074 35.006 315.145 39.8814 315.145 39.8814L329.622 69.9817C279.623 74.7158 256.035 98.8808 256.035 98.8808Z" fill="#863ED5"/>
<path opacity="0.2" d="M262.462 84.2502C271.878 77.3022 301.303 61.9267 321.077 64.0464" stroke="#863ED5" stroke-width="3" stroke-linecap="round"/>
<path opacity="0.2" d="M262.462 64.753C270.819 58.2063 292.546 45.3792 312.602 46.4444" stroke="#863ED5" stroke-width="3" stroke-linecap="round"/>
<path opacity="0.2" d="M262.462 74.6451C271.525 67.5948 295.088 53.781 316.84 54.9282" stroke="#863ED5" stroke-width="3" stroke-linecap="round"/>
<path opacity="0.2" d="M250.456 84.2502C241.04 77.3022 211.615 61.9267 191.841 64.0464" stroke="#863ED5" stroke-width="3" stroke-linecap="round"/>
<path opacity="0.2" d="M250.456 64.753C242.1 58.2063 220.372 45.3792 200.316 46.4444" stroke="#863ED5" stroke-width="3" stroke-linecap="round"/>
<path opacity="0.2" d="M250.456 74.6451C241.393 67.5948 217.83 53.781 196.079 54.9282" stroke="#863ED5" stroke-width="3" stroke-linecap="round"/>
<path d="M256.035 55.3555C256.035 55.3555 256.742 52.8825 258.083 53.5891C258.083 53.5891 257.236 93.6521 258.648 109.268C259.001 113.154 262.391 118.453 263.733 120.432H261.967L261.473 122.057C261.473 122.057 256.247 113.224 256.035 109.762C254.976 94.2174 255.541 59.1004 256.035 55.3555Z" fill="#54DAF5"/>
</g>
<path d="M28.946 77.606H23.942L23.114 80H20.468L24.986 67.418H27.92L32.438 80H29.774L28.946 77.606ZM28.262 75.59L26.444 70.334L24.626 75.59H28.262ZM36.6468 66.68V80H34.1268V66.68H36.6468ZM46.8045 72.512V74.636H39.1725V72.512H46.8045ZM57.3887 67.436V69.47H52.1507V72.692H56.1647V74.69H52.1507V80H49.6307V67.436H57.3887ZM58.5276 74.978C58.5276 73.97 58.7256 73.076 59.1216 72.296C59.5296 71.516 60.0756 70.916 60.7596 70.496C61.4556 70.076 62.2296 69.866 63.0816 69.866C63.8256 69.866 64.4736 70.016 65.0256 70.316C65.5896 70.616 66.0396 70.994 66.3756 71.45V70.028H68.9136V80H66.3756V78.542C66.0516 79.01 65.6016 79.4 65.0256 79.712C64.4616 80.012 63.8076 80.162 63.0636 80.162C62.2236 80.162 61.4556 79.946 60.7596 79.514C60.0756 79.082 59.5296 78.476 59.1216 77.696C58.7256 76.904 58.5276 75.998 58.5276 74.978ZM66.3756 75.014C66.3756 74.402 66.2556 73.88 66.0156 73.448C65.7756 73.004 65.4516 72.668 65.0436 72.44C64.6356 72.2 64.1976 72.08 63.7296 72.08C63.2616 72.08 62.8296 72.194 62.4336 72.422C62.0376 72.65 61.7136 72.986 61.4616 73.43C61.2216 73.862 61.1016 74.378 61.1016 74.978C61.1016 75.578 61.2216 76.106 61.4616 76.562C61.7136 77.006 62.0376 77.348 62.4336 77.588C62.8416 77.828 63.2736 77.948 63.7296 77.948C64.1976 77.948 64.6356 77.834 65.0436 77.606C65.4516 77.366 65.7756 77.03 66.0156 76.598C66.2556 76.154 66.3756 75.626 66.3756 75.014ZM74.3088 72.098V76.922C74.3088 77.258 74.3868 77.504 74.5428 77.66C74.7108 77.804 74.9868 77.876 75.3708 77.876H76.5408V80H74.9568C72.8328 80 71.7708 78.968 71.7708 76.904V72.098H70.5828V70.028H71.7708V67.562H74.3088V70.028H76.5408V72.098H74.3088ZM79.6313 68.84C79.1873 68.84 78.8153 68.702 78.5153 68.426C78.2273 68.138 78.0833 67.784 78.0833 67.364C78.0833 66.944 78.2273 66.596 78.5153 66.32C78.8153 66.032 79.1873 65.888 79.6313 65.888C80.0753 65.888 80.4413 66.032 80.7293 66.32C81.0293 66.596 81.1793 66.944 81.1793 67.364C81.1793 67.784 81.0293 68.138 80.7293 68.426C80.4413 68.702 80.0753 68.84 79.6313 68.84ZM80.8733 70.028V80H78.3533V70.028H80.8733ZM82.7151 74.978C82.7151 73.97 82.9131 73.076 83.3091 72.296C83.7171 71.516 84.2631 70.916 84.9471 70.496C85.6431 70.076 86.4171 69.866 87.2691 69.866C88.0131 69.866 88.6611 70.016 89.2131 70.316C89.7771 70.616 90.2271 70.994 90.5631 71.45V70.028H93.1011V80H90.5631V78.542C90.2391 79.01 89.7891 79.4 89.2131 79.712C88.6491 80.012 87.9951 80.162 87.2511 80.162C86.4111 80.162 85.6431 79.946 84.9471 79.514C84.2631 79.082 83.7171 78.476 83.3091 77.696C82.9131 76.904 82.7151 75.998 82.7151 74.978ZM90.5631 75.014C90.5631 74.402 90.4431 73.88 90.2031 73.448C89.9631 73.004 89.6391 72.668 89.2311 72.44C88.8231 72.2 88.3851 72.08 87.9171 72.08C87.4491 72.08 87.0171 72.194 86.6211 72.422C86.2251 72.65 85.9011 72.986 85.6491 73.43C85.4091 73.862 85.2891 74.378 85.2891 74.978C85.2891 75.578 85.4091 76.106 85.6491 76.562C85.9011 77.006 86.2251 77.348 86.6211 77.588C87.0291 77.828 87.4611 77.948 87.9171 77.948C88.3851 77.948 88.8231 77.834 89.2311 77.606C89.6391 77.366 89.9631 77.03 90.2031 76.598C90.4431 76.154 90.5631 75.626 90.5631 75.014ZM101.178 69.884C101.934 69.884 102.606 70.052 103.194 70.388C103.782 70.712 104.238 71.198 104.562 71.846C104.898 72.482 105.066 73.25 105.066 74.15V80H102.546V74.492C102.546 73.7 102.348 73.094 101.952 72.674C101.556 72.242 101.016 72.026 100.332 72.026C99.6363 72.026 99.0843 72.242 98.6763 72.674C98.2803 73.094 98.0823 73.7 98.0823 74.492V80H95.5623V66.68H98.0823V71.27C98.4063 70.838 98.8383 70.502 99.3783 70.262C99.9183 70.01 100.518 69.884 101.178 69.884Z" fill="white"/>
<path opacity="0.8" d="M26.846 103.83H22.59L21.806 106H20.462L23.99 96.298H25.46L28.974 106H27.63L26.846 103.83ZM26.482 102.794L24.718 97.866L22.954 102.794H26.482ZM37.1196 98.328L32.4996 109.612H31.1836L32.6956 105.916L29.6016 98.328H31.0156L33.4236 104.544L35.8036 98.328H37.1196ZM37.9243 102.136C37.9243 101.352 38.0829 100.666 38.4003 100.078C38.7176 99.4807 39.1516 99.0187 39.7023 98.692C40.2623 98.3653 40.8829 98.202 41.5643 98.202C42.2363 98.202 42.8196 98.3467 43.3143 98.636C43.8089 98.9253 44.1776 99.2893 44.4203 99.728V98.328H45.7083V106H44.4203V104.572C44.1683 105.02 43.7903 105.393 43.2863 105.692C42.7916 105.981 42.2129 106.126 41.5503 106.126C40.8689 106.126 40.2529 105.958 39.7023 105.622C39.1516 105.286 38.7176 104.815 38.4003 104.208C38.0829 103.601 37.9243 102.911 37.9243 102.136ZM44.4203 102.15C44.4203 101.571 44.3036 101.067 44.0703 100.638C43.8369 100.209 43.5196 99.882 43.1183 99.658C42.7263 99.4247 42.2923 99.308 41.8163 99.308C41.3403 99.308 40.9063 99.42 40.5143 99.644C40.1223 99.868 39.8096 100.195 39.5763 100.624C39.3429 101.053 39.2263 101.557 39.2263 102.136C39.2263 102.724 39.3429 103.237 39.5763 103.676C39.8096 104.105 40.1223 104.437 40.5143 104.67C40.9063 104.894 41.3403 105.006 41.8163 105.006C42.2923 105.006 42.7263 104.894 43.1183 104.67C43.5196 104.437 43.8369 104.105 44.0703 103.676C44.3036 103.237 44.4203 102.729 44.4203 102.15ZM51.6692 98.188C52.2479 98.188 52.7705 98.314 53.2372 98.566C53.7039 98.8087 54.0679 99.1773 54.3292 99.672C54.5999 100.167 54.7352 100.769 54.7352 101.478V106H53.4752V101.66C53.4752 100.895 53.2839 100.311 52.9012 99.91C52.5185 99.4993 51.9959 99.294 51.3332 99.294C50.6612 99.294 50.1245 99.504 49.7232 99.924C49.3312 100.344 49.1352 100.955 49.1352 101.758V106H47.8612V95.64H49.1352V99.42C49.3872 99.028 49.7325 98.7247 50.1712 98.51C50.6192 98.2953 51.1185 98.188 51.6692 98.188ZM68.2207 106H66.9467L61.8227 98.23V106H60.5487V96.228H61.8227L66.9467 103.984V96.228H68.2207V106ZM73.7385 106.126C73.0198 106.126 72.3665 105.963 71.7785 105.636C71.1998 105.309 70.7425 104.847 70.4065 104.25C70.0798 103.643 69.9165 102.943 69.9165 102.15C69.9165 101.366 70.0845 100.675 70.4205 100.078C70.7658 99.4713 71.2325 99.0093 71.8205 98.692C72.4085 98.3653 73.0665 98.202 73.7945 98.202C74.5225 98.202 75.1805 98.3653 75.7685 98.692C76.3565 99.0093 76.8185 99.4667 77.1545 100.064C77.4998 100.661 77.6725 101.357 77.6725 102.15C77.6725 102.943 77.4951 103.643 77.1405 104.25C76.7951 104.847 76.3238 105.309 75.7265 105.636C75.1291 105.963 74.4665 106.126 73.7385 106.126ZM73.7385 105.006C74.1958 105.006 74.6251 104.899 75.0265 104.684C75.4278 104.469 75.7498 104.147 75.9925 103.718C76.2445 103.289 76.3705 102.766 76.3705 102.15C76.3705 101.534 76.2491 101.011 76.0065 100.582C75.7638 100.153 75.4465 99.8353 75.0545 99.63C74.6625 99.4153 74.2378 99.308 73.7805 99.308C73.3138 99.308 72.8845 99.4153 72.4925 99.63C72.1098 99.8353 71.8018 100.153 71.5685 100.582C71.3351 101.011 71.2185 101.534 71.2185 102.15C71.2185 102.775 71.3305 103.303 71.5545 103.732C71.7878 104.161 72.0958 104.483 72.4785 104.698C72.8611 104.903 73.2811 105.006 73.7385 105.006ZM79.7535 106.084C79.5109 106.084 79.3055 106 79.1375 105.832C78.9695 105.664 78.8855 105.459 78.8855 105.216C78.8855 104.973 78.9695 104.768 79.1375 104.6C79.3055 104.432 79.5109 104.348 79.7535 104.348C79.9869 104.348 80.1829 104.432 80.3415 104.6C80.5095 104.768 80.5935 104.973 80.5935 105.216C80.5935 105.459 80.5095 105.664 80.3415 105.832C80.1829 106 79.9869 106.084 79.7535 106.084ZM79.7535 100.092C79.5109 100.092 79.3055 100.008 79.1375 99.84C78.9695 99.672 78.8855 99.4667 78.8855 99.224C78.8855 98.9813 78.9695 98.776 79.1375 98.608C79.3055 98.44 79.5109 98.356 79.7535 98.356C79.9869 98.356 80.1829 98.44 80.3415 98.608C80.5095 98.776 80.5935 98.9813 80.5935 99.224C80.5935 99.4667 80.5095 99.672 80.3415 99.84C80.1829 100.008 79.9869 100.092 79.7535 100.092ZM85.5144 97.04V95.878H88.1464V106H86.8584V97.04H85.5144Z" fill="white"/>
<g clip-path="url(#clip2_1102_1110)">
<g clip-path="url(#clip3_1102_1110)">
<path d="M38.3437 22.2256H33.4894C32.6779 22.2251 31.8905 22.5009 31.2568 23.0077C30.6231 23.5145 30.1809 24.2221 30.0031 25.0138C29.8249 24.2223 29.3826 23.515 28.749 23.0083C28.1154 22.5015 27.3282 22.2255 26.5169 22.2256H21.6662C21.2242 22.2258 20.8003 22.4015 20.4878 22.714C20.1752 23.0266 19.9995 23.4505 19.9994 23.8925V32.4275C19.9995 32.8695 20.1752 33.2934 20.4878 33.606C20.8003 33.9185 21.2242 34.0942 21.6662 34.0944H24.7806C28.3294 34.0944 29.3881 34.9413 29.895 36.6988C29.9194 36.7963 30.0756 36.7963 30.1031 36.6988C30.6137 34.9419 31.6725 34.0944 35.2175 34.0944H38.3319C38.7739 34.0942 39.1978 33.9185 39.5103 33.606C39.8229 33.2934 39.9986 32.8695 39.9987 32.4275V23.8963C39.9987 23.4557 39.8247 23.033 39.5145 22.7202C39.2043 22.4074 38.783 22.2299 38.3425 22.2263L38.3437 22.2256ZM28.4025 31.4406C28.4027 31.4566 28.3996 31.4724 28.3936 31.4872C28.3876 31.502 28.3786 31.5154 28.3673 31.5267C28.3561 31.538 28.3426 31.547 28.3278 31.553C28.313 31.559 28.2972 31.562 28.2812 31.5619H22.715C22.699 31.562 22.6832 31.5589 22.6685 31.5528C22.6537 31.5468 22.6403 31.5378 22.6291 31.5266C22.6178 31.5153 22.6089 31.5019 22.6028 31.4871C22.5967 31.4724 22.5937 31.4566 22.5937 31.4406V30.6456C22.5937 30.58 22.6456 30.5244 22.715 30.5244H28.2844C28.35 30.5244 28.4056 30.5763 28.4056 30.6456V31.4406H28.4025ZM28.4025 29.3263C28.4026 29.3422 28.3995 29.358 28.3934 29.3728C28.3874 29.3875 28.3784 29.4009 28.3672 29.4122C28.3559 29.4235 28.3425 29.4324 28.3277 29.4384C28.313 29.4445 28.2972 29.4476 28.2812 29.4475H22.715C22.699 29.4476 22.6832 29.4445 22.6685 29.4384C22.6537 29.4324 22.6403 29.4235 22.6291 29.4122C22.6178 29.4009 22.6089 29.3875 22.6028 29.3728C22.5967 29.358 22.5937 29.3422 22.5937 29.3263V28.5313C22.5937 28.465 22.6456 28.41 22.715 28.41H28.2844C28.35 28.41 28.4056 28.4619 28.4056 28.5313V29.3263H28.4025ZM28.4025 27.2119C28.4026 27.2278 28.3995 27.2436 28.3934 27.2584C28.3874 27.2731 28.3784 27.2865 28.3672 27.2978C28.3559 27.3091 28.3425 27.318 28.3277 27.3241C28.313 27.3301 28.2972 27.3332 28.2812 27.3331H22.715C22.699 27.3332 22.6832 27.3301 22.6685 27.3241C22.6537 27.318 22.6403 27.3091 22.6291 27.2978C22.6178 27.2865 22.6089 27.2731 22.6028 27.2584C22.5967 27.2436 22.5937 27.2278 22.5937 27.2119V26.4169C22.5937 26.3513 22.6456 26.2956 22.715 26.2956H28.2844C28.35 26.2956 28.4056 26.3475 28.4056 26.4169V27.2119H28.4025ZM37.4062 31.4375C37.4063 31.4535 37.4032 31.4693 37.3972 31.484C37.3911 31.4988 37.3822 31.5122 37.3709 31.5234C37.3596 31.5347 37.3462 31.5436 37.3315 31.5497C37.3167 31.5558 37.3009 31.5588 37.285 31.5588H31.7187C31.7028 31.5588 31.687 31.5558 31.6722 31.5497C31.6575 31.5436 31.6441 31.5347 31.6328 31.5234C31.6215 31.5122 31.6126 31.4988 31.6065 31.484C31.6005 31.4693 31.5974 31.4535 31.5975 31.4375V30.6425C31.5975 30.5769 31.6494 30.5213 31.7187 30.5213H37.2881C37.3544 30.5213 37.4094 30.5731 37.4094 30.6425V31.4375H37.4062ZM37.4062 29.3231C37.4064 29.3391 37.4034 29.3549 37.3973 29.3697C37.3913 29.3845 37.3824 29.3979 37.3711 29.4092C37.3598 29.4205 37.3464 29.4295 37.3316 29.4355C37.3168 29.4415 37.301 29.4445 37.285 29.4444H31.7187C31.7028 29.4445 31.687 29.4414 31.6722 29.4353C31.6575 29.4293 31.6441 29.4203 31.6328 29.4091C31.6215 29.3978 31.6126 29.3844 31.6065 29.3696C31.6005 29.3549 31.5974 29.3391 31.5975 29.3231V28.5281C31.5975 28.4625 31.6494 28.4069 31.7187 28.4069H37.2881C37.3544 28.4069 37.4094 28.4588 37.4094 28.5281V29.3231H37.4062ZM37.4062 27.2081C37.4063 27.2241 37.4032 27.2399 37.3972 27.2546C37.3911 27.2694 37.3822 27.2828 37.3709 27.2941C37.3596 27.3053 37.3462 27.3143 37.3315 27.3203C37.3167 27.3264 37.3009 27.3295 37.285 27.3294H31.7187C31.7028 27.3295 31.687 27.3264 31.6722 27.3203C31.6575 27.3143 31.6441 27.3053 31.6328 27.2941C31.6215 27.2828 31.6126 27.2694 31.6065 27.2546C31.6005 27.2399 31.5974 27.2241 31.5975 27.2081V26.4163C31.5975 26.3506 31.6494 26.295 31.7187 26.295H37.2881C37.3544 26.295 37.4094 26.3469 37.4094 26.4163V27.2081H37.4062Z" fill="white"/>
</g>
<path d="M50.646 32.712H53.936V34H49.05V24.27H50.646V32.712ZM54.7387 30.108C54.7387 29.3333 54.8974 28.6473 55.2147 28.05C55.5414 27.4527 55.98 26.9907 56.5307 26.664C57.0907 26.328 57.7067 26.16 58.3787 26.16C58.9854 26.16 59.5127 26.2813 59.9607 26.524C60.418 26.7573 60.782 27.0513 61.0527 27.406V26.286H62.6627V34H61.0527V32.852C60.782 33.216 60.4134 33.5193 59.9467 33.762C59.48 34.0047 58.948 34.126 58.3507 34.126C57.688 34.126 57.0814 33.958 56.5307 33.622C55.98 33.2767 55.5414 32.8007 55.2147 32.194C54.8974 31.578 54.7387 30.8827 54.7387 30.108ZM61.0527 30.136C61.0527 29.604 60.9407 29.142 60.7167 28.75C60.502 28.358 60.2174 28.0593 59.8627 27.854C59.508 27.6487 59.1254 27.546 58.7147 27.546C58.304 27.546 57.9214 27.6487 57.5667 27.854C57.212 28.05 56.9227 28.344 56.6987 28.736C56.484 29.1187 56.3767 29.576 56.3767 30.108C56.3767 30.64 56.484 31.1067 56.6987 31.508C56.9227 31.9093 57.212 32.2173 57.5667 32.432C57.9307 32.6373 58.3134 32.74 58.7147 32.74C59.1254 32.74 59.508 32.6373 59.8627 32.432C60.2174 32.2267 60.502 31.928 60.7167 31.536C60.9407 31.1347 61.0527 30.668 61.0527 30.136ZM67.559 34.126C66.9523 34.126 66.4063 34.0187 65.921 33.804C65.445 33.58 65.067 33.2813 64.787 32.908C64.507 32.5253 64.3577 32.1007 64.339 31.634H65.991C66.019 31.9607 66.173 32.236 66.453 32.46C66.7423 32.6747 67.1017 32.782 67.531 32.782C67.979 32.782 68.3243 32.698 68.567 32.53C68.819 32.3527 68.945 32.1287 68.945 31.858C68.945 31.5687 68.805 31.354 68.525 31.214C68.2543 31.074 67.8203 30.92 67.223 30.752C66.6443 30.5933 66.173 30.4393 65.809 30.29C65.445 30.1407 65.1277 29.912 64.857 29.604C64.5957 29.296 64.465 28.89 64.465 28.386C64.465 27.9753 64.5863 27.602 64.829 27.266C65.0717 26.9207 65.417 26.65 65.865 26.454C66.3223 26.258 66.845 26.16 67.433 26.16C68.3103 26.16 69.015 26.384 69.547 26.832C70.0883 27.2707 70.3777 27.8727 70.415 28.638H68.819C68.791 28.2927 68.651 28.0173 68.399 27.812C68.147 27.6067 67.8063 27.504 67.377 27.504C66.957 27.504 66.635 27.5833 66.411 27.742C66.187 27.9007 66.075 28.1107 66.075 28.372C66.075 28.5773 66.1497 28.75 66.299 28.89C66.4483 29.03 66.6303 29.142 66.845 29.226C67.0597 29.3007 67.377 29.3987 67.797 29.52C68.357 29.6693 68.8143 29.8233 69.169 29.982C69.533 30.1313 69.8457 30.3553 70.107 30.654C70.3683 30.9527 70.5037 31.3493 70.513 31.844C70.513 32.2827 70.3917 32.6747 70.149 33.02C69.9063 33.3653 69.561 33.636 69.113 33.832C68.6743 34.028 68.1563 34.126 67.559 34.126ZM74.0995 27.588V31.858C74.0995 32.1473 74.1648 32.3573 74.2955 32.488C74.4355 32.6093 74.6688 32.67 74.9955 32.67H75.9755V34H74.7155C73.9968 34 73.4462 33.832 73.0635 33.496C72.6808 33.16 72.4895 32.614 72.4895 31.858V27.588H71.5795V26.286H72.4895V24.368H74.0995V26.286H75.9755V27.588H74.0995ZM86.1372 34L83.8972 30.108H82.6792V34H81.0832V24.27H84.4432C85.1899 24.27 85.8199 24.4007 86.3332 24.662C86.8559 24.9233 87.2432 25.2733 87.4952 25.712C87.7565 26.1507 87.8872 26.6407 87.8872 27.182C87.8872 27.8167 87.7005 28.3953 87.3272 28.918C86.9632 29.4313 86.3985 29.7813 85.6332 29.968L88.0412 34H86.1372ZM82.6792 28.834H84.4432C85.0405 28.834 85.4885 28.6847 85.7872 28.386C86.0952 28.0873 86.2492 27.686 86.2492 27.182C86.2492 26.678 86.0999 26.286 85.8012 26.006C85.5025 25.7167 85.0499 25.572 84.4432 25.572H82.6792V28.834ZM96.9989 29.954C96.9989 30.2433 96.9802 30.5047 96.9429 30.738H91.0489C91.0956 31.354 91.3242 31.8487 91.7349 32.222C92.1456 32.5953 92.6496 32.782 93.2469 32.782C94.1056 32.782 94.7122 32.4227 95.0669 31.704H96.7889C96.5556 32.4133 96.1309 32.9967 95.5149 33.454C94.9082 33.902 94.1522 34.126 93.2469 34.126C92.5096 34.126 91.8469 33.9627 91.2589 33.636C90.6802 33.3 90.2229 32.8333 89.8869 32.236C89.5602 31.6293 89.3969 30.9293 89.3969 30.136C89.3969 29.3427 89.5556 28.6473 89.8729 28.05C90.1996 27.4433 90.6522 26.9767 91.2309 26.65C91.8189 26.3233 92.4909 26.16 93.2469 26.16C93.9749 26.16 94.6236 26.3187 95.1929 26.636C95.7622 26.9533 96.2056 27.4013 96.5229 27.98C96.8402 28.5493 96.9989 29.2073 96.9989 29.954ZM95.3329 29.45C95.3236 28.862 95.1136 28.3907 94.7029 28.036C94.2922 27.6813 93.7836 27.504 93.1769 27.504C92.6262 27.504 92.1549 27.6813 91.7629 28.036C91.3709 28.3813 91.1376 28.8527 91.0629 29.45H95.3329ZM98.0375 30.108C98.0375 29.3333 98.1962 28.6473 98.5135 28.05C98.8402 27.4527 99.2789 26.9907 99.8295 26.664C100.39 26.328 101.006 26.16 101.678 26.16C102.284 26.16 102.812 26.2813 103.26 26.524C103.717 26.7573 104.081 27.0513 104.352 27.406V26.286H105.962V34H104.352V32.852C104.081 33.216 103.712 33.5193 103.246 33.762C102.779 34.0047 102.247 34.126 101.65 34.126C100.987 34.126 100.38 33.958 99.8295 33.622C99.2789 33.2767 98.8402 32.8007 98.5135 32.194C98.1962 31.578 98.0375 30.8827 98.0375 30.108ZM104.352 30.136C104.352 29.604 104.24 29.142 104.016 28.75C103.801 28.358 103.516 28.0593 103.162 27.854C102.807 27.6487 102.424 27.546 102.014 27.546C101.603 27.546 101.22 27.6487 100.866 27.854C100.511 28.05 100.222 28.344 99.9975 28.736C99.7829 29.1187 99.6755 29.576 99.6755 30.108C99.6755 30.64 99.7829 31.1067 99.9975 31.508C100.222 31.9093 100.511 32.2173 100.866 32.432C101.23 32.6373 101.612 32.74 102.014 32.74C102.424 32.74 102.807 32.6373 103.162 32.432C103.516 32.2267 103.801 31.928 104.016 31.536C104.24 31.1347 104.352 30.668 104.352 30.136ZM107.526 30.108C107.526 29.3333 107.684 28.6473 108.002 28.05C108.328 27.4527 108.767 26.9907 109.318 26.664C109.878 26.328 110.498 26.16 111.18 26.16C111.684 26.16 112.178 26.272 112.664 26.496C113.158 26.7107 113.55 27 113.84 27.364V23.64H115.45V34H113.84V32.838C113.578 33.2113 113.214 33.5193 112.748 33.762C112.29 34.0047 111.763 34.126 111.166 34.126C110.494 34.126 109.878 33.958 109.318 33.622C108.767 33.2767 108.328 32.8007 108.002 32.194C107.684 31.578 107.526 30.8827 107.526 30.108ZM113.84 30.136C113.84 29.604 113.728 29.142 113.504 28.75C113.289 28.358 113.004 28.0593 112.65 27.854C112.295 27.6487 111.912 27.546 111.502 27.546C111.091 27.546 110.708 27.6487 110.354 27.854C109.999 28.05 109.71 28.344 109.486 28.736C109.271 29.1187 109.164 29.576 109.164 30.108C109.164 30.64 109.271 31.1067 109.486 31.508C109.71 31.9093 109.999 32.2173 110.354 32.432C110.718 32.6373 111.1 32.74 111.502 32.74C111.912 32.74 112.295 32.6373 112.65 32.432C113.004 32.2267 113.289 31.928 113.504 31.536C113.728 31.1347 113.84 30.668 113.84 30.136Z" fill="white"/>
</g>
</g>
<defs>
<linearGradient id="paint0_linear_1102_1110" x1="0" y1="0" x2="90.6452" y2="225.575" gradientUnits="userSpaceOnUse">
<stop stop-color="#DF98FA"/>
<stop offset="1" stop-color="#9055FF"/>
</linearGradient>
<clipPath id="clip0_1102_1110">
<rect width="326" height="131" fill="white"/>
</clipPath>
<clipPath id="clip1_1102_1110">
<rect width="326" height="131" rx="10" fill="white"/>
</clipPath>
<clipPath id="clip2_1102_1110">
<rect width="107" height="21" fill="white" transform="translate(20 19)"/>
</clipPath>
<clipPath id="clip3_1102_1110">
<rect width="20" height="20" fill="white" transform="translate(20 19.5)"/>
</clipPath>
</defs>
</svg>
